<svg xmlns="http://www.w3.org/2000/svg" viewBox="0 0 512 512" fill="none">
  <defs>
    <radialGradient id="glow" cx="0" cy="0" r="1" gradientTransform="translate(412 70) rotate(135) scale(300)">
      <stop stop-color="#C8F33F" stop-opacity=".13"/>
      <stop offset="1" stop-color="#C8F33F" stop-opacity="0"/>
    </radialGradient>
    <linearGradient id="blueDisc" x1="106" y1="132" x2="192" y2="284" gradientUnits="userSpaceOnUse">
      <stop stop-color="#6680FF"/>
      <stop offset=".42" stop-color="#244BFF"/>
      <stop offset="1" stop-color="#071132"/>
    </linearGradient>
    <linearGradient id="silverDisc" x1="208" y1="102" x2="302" y2="294" gradientUnits="userSpaceOnUse">
      <stop stop-color="#ECEFEB"/>
      <stop offset=".4" stop-color="#858B88"/>
      <stop offset="1" stop-color="#191C1B"/>
    </linearGradient>
    <linearGradient id="limeDisc" x1="330" y1="132" x2="408" y2="284" gradientUnits="userSpaceOnUse">
      <stop stop-color="#D8FA61"/>
      <stop offset=".42" stop-color="#91B51A"/>
      <stop offset="1" stop-color="#1A2603"/>
    </linearGradient>
    <linearGradient id="blueSleeve" x1="76" y1="224" x2="224" y2="428" gradientUnits="userSpaceOnUse">
      <stop stop-color="#111A2E"/>
      <stop offset="1" stop-color="#05080E"/>
    </linearGradient>
    <linearGradient id="centreSleeve" x1="181" y1="204" x2="331" y2="436" gradientUnits="userSpaceOnUse">
      <stop stop-color="#202222"/>
      <stop offset="1" stop-color="#070808"/>
    </linearGradient>
    <linearGradient id="limeSleeve" x1="288" y1="224" x2="436" y2="428" gradientUnits="userSpaceOnUse">
      <stop stop-color="#1C230E"/>
      <stop offset="1" stop-color="#060804"/>
    </linearGradient>
    <filter id="shadow" x="-30%" y="-30%" width="160%" height="180%">
      <feDropShadow dx="0" dy="16" stdDeviation="14" flood-color="#000" flood-opacity=".55"/>
    </filter>
  </defs>
  <rect width="512" height="512" fill="#050607"/>
  <rect width="512" height="512" fill="url(#glow)"/>
  <rect x="30" y="30" width="452" height="452" rx="80" stroke="#C8F33F" stroke-opacity=".13" stroke-width="3"/>

  <circle cx="145" cy="210" r="78" fill="url(#blueDisc)"/>
  <circle cx="367" cy="210" r="78" fill="url(#limeDisc)"/>
  <circle cx="256" cy="190" r="92" fill="url(#silverDisc)"/>
  <g fill="none" stroke="#F6F7F4" stroke-opacity=".1" stroke-width="1.5">
    <circle cx="145" cy="210" r="68"/><circle cx="145" cy="210" r="58"/><circle cx="145" cy="210" r="45"/><circle cx="145" cy="210" r="31"/>
    <circle cx="256" cy="190" r="82"/><circle cx="256" cy="190" r="70"/><circle cx="256" cy="190" r="55"/><circle cx="256" cy="190" r="38"/>
    <circle cx="367" cy="210" r="68"/><circle cx="367" cy="210" r="58"/><circle cx="367" cy="210" r="45"/><circle cx="367" cy="210" r="31"/>
  </g>
  <g fill="none" stroke="#FFF" stroke-opacity=".22" stroke-width="3" stroke-linecap="round">
    <path d="M99 157A68 68 0 0 1 132 137"/><path d="M201 126A82 82 0 0 1 241 100"/><path d="M327 157A68 68 0 0 1 358 139"/>
  </g>
  <circle cx="145" cy="210" r="13" fill="#08102C"/><circle cx="145" cy="210" r="3" fill="#B8C4FF"/>
  <circle cx="256" cy="190" r="15" fill="#191C1B"/><circle cx="256" cy="190" r="3" fill="#D6B15B"/>
  <circle cx="367" cy="210" r="13" fill="#172200"/><circle cx="367" cy="210" r="3" fill="#E3FF7A"/>

  <g filter="url(#shadow)">
    <g transform="rotate(-5 151 330)">
      <rect x="76" y="226" width="150" height="204" rx="15" fill="url(#blueSleeve)" stroke="#244BFF" stroke-opacity=".42" stroke-width="2"/>
      <path d="M94 249H130M94 256H116" stroke="#8DA0FF" stroke-opacity=".34" stroke-width="2" stroke-linecap="round"/>
      <circle cx="105" cy="291" r="2" fill="#8DA0FF" fill-opacity=".55"/><circle cx="192" cy="276" r="1.5" fill="#8DA0FF" fill-opacity=".4"/><circle cx="178" cy="342" r="1.5" fill="#8DA0FF" fill-opacity=".4"/>
      <circle cx="151" cy="321" r="23" fill="#244BFF" fill-opacity=".7"/>
      <circle cx="143" cy="313" r="8" fill="#95A5FF" fill-opacity=".25"/>
      <path d="M92 386C118 361 143 362 165 378C181 389 197 390 211 380V414H92V386Z" fill="#244BFF" fill-opacity=".22"/>
      <path d="M92 399C119 380 142 385 163 396C180 405 196 404 211 395" stroke="#5D78FF" stroke-opacity=".3" stroke-width="2"/>
      <path d="M94 414H127" stroke="#6680FF" stroke-opacity=".55" stroke-width="2" stroke-linecap="round"/>
    </g>
    <g transform="rotate(5 361 330)">
      <rect x="286" y="226" width="150" height="204" rx="15" fill="url(#limeSleeve)" stroke="#C8F33F" stroke-opacity=".42" stroke-width="2"/>
      <path d="M304 249H340M304 256H326" stroke="#DFFF75" stroke-opacity=".3" stroke-width="2" stroke-linecap="round"/>
      <circle cx="361" cy="322" r="29" fill="#050607" stroke="#C8F33F" stroke-opacity=".3" stroke-width="2"/>
      <circle cx="352" cy="313" r="9" fill="#C8F33F" fill-opacity=".08"/>
      <path d="M302 399L333 365L357 389L380 358L420 402V414H302V399Z" fill="#C8F33F" fill-opacity=".16"/>
      <path d="M302 407L332 382L356 400L381 374L420 407" stroke="#C8F33F" stroke-opacity=".24" stroke-width="2"/>
      <path d="M304 414H337" stroke="#C8F33F" stroke-opacity=".5" stroke-width="2" stroke-linecap="round"/>
    </g>
    <rect x="181" y="208" width="150" height="228" rx="15" fill="url(#centreSleeve)" stroke="#F6F7F4" stroke-opacity=".25" stroke-width="2"/>
    <path d="M201 232H241M201 240H226" stroke="#F6F7F4" stroke-opacity=".26" stroke-width="2" stroke-linecap="round"/>
    <circle cx="256" cy="318" r="46" stroke="#F6F7F4" stroke-opacity=".09"/>
    <circle cx="256" cy="318" r="42" stroke="#F6F7F4" stroke-opacity=".2" stroke-width="2"/>
    <circle cx="256" cy="318" r="30" stroke="#F6F7F4" stroke-opacity=".08"/>
    <path d="M244 278L262 304L250 323L268 350" stroke="#F6F7F4" stroke-opacity=".28" stroke-width="3" stroke-linecap="round"/>
    <circle cx="256" cy="318" r="6" fill="#C8F33F"/>
    <circle cx="221" cy="291" r="1.5" fill="#F6F7F4" fill-opacity=".3"/><circle cx="286" cy="339" r="1.5" fill="#F6F7F4" fill-opacity=".24"/><circle cx="277" cy="282" r="1" fill="#F6F7F4" fill-opacity=".25"/>
    <path d="M201 414H238" stroke="#F6F7F4" stroke-opacity=".34" stroke-width="2" stroke-linecap="round"/>
  </g>
</svg>
